<?xml version="1.0" encoding="utf-8"?>
<!-- Generator: Adobe Illustrator 19.0.0, SVG Export Plug-In . SVG Version: 6.00 Build 0)  -->
<svg version="1.1" id="Layer_1" xmlns="http://www.w3.org/2000/svg" xmlns:xlink="http://www.w3.org/1999/xlink" x="0px" y="0px"
	 viewBox="0 0 96 96" style="enable-background:new 0 0 96 96;" xml:space="preserve">
<style type="text/css">
	.st0{fill:#333333;}
</style>
<g id="XMLID_1_">
	
		<rect id="XMLID_3_" x="58" y="58.7" transform="matrix(-0.7071 0.7071 -0.7071 -0.7071 153.4255 77.1213)" class="st0" width="5.5" height="23.3"/>
	<path id="XMLID_6_" class="st0" d="M58,45.7c0-6.1-5.3-14.3-5.9-15.2c-0.5-0.7-1.2-1.1-2-1.2c-0.8-0.1-1.6,0.2-2.2,0.8l-3.5,3.5
		V18.2c0-1.2-0.7-2.2-1.8-2.6c-1.1-0.4-2.3-0.1-3,0.8c-0.6,0.7-14.3,17.3-14.3,29.2c0,3.9,1.4,7.7,4.1,10.7
		c3.2,3.6,7.7,5.7,12.4,5.7c3.5,0,6.8-1.1,9.7-3.2C55.5,55.7,58,50.9,58,45.7z M46,52.5c-1.3-0.8-2.8-1.3-4.5-1.3
		c-1.6,0-3.1,0.5-4.4,1.3c-0.6-0.4-1.2-0.9-1.7-1.5c-0.6-0.7-1.2-1.7-1.6-2.9c2.2-1.5,4.9-2.5,7.8-2.5c2.9,0,5.6,0.9,7.8,2.5
		C48.7,50.1,47.6,51.4,46,52.5z"/>
</g>
</svg>
